<svg width="158" height="45" viewBox="0 0 158 45" fill="none" xmlns="http://www.w3.org/2000/svg">
<g id="&#240;&#159;&#150;&#188; Logo">
<g id="Two_lines" clip-path="url(#clip0_69_688)">
<path id="Vector" d="M41.5032 0.603843C38.1189 6.47484 37.5014 13.1775 35.6267 19.5041C33.1866 27.7438 28.5535 34.4959 21.0741 38.9643C15.1125 42.527 9.19211 42.5819 3.60931 37.9899C3.49677 37.8966 3.34581 37.85 2.92861 37.6359V41.7859C2.76667 41.8216 2.60199 41.8545 2.44005 41.8902C2.28909 41.5965 1.97619 41.2836 2.00912 41.0119C2.44828 37.2077 0.971614 33.7274 0.301897 30.1016C-0.875596 23.7255 1.5535 18.28 5.47848 13.4163C11.5855 5.84081 19.7676 1.99543 29.2205 0.746569C33.2058 0.219579 37.2598 0.230558 41.2836 0L41.5032 0.603843Z" fill="#39B54A"/>
<path id="Vector_2" d="M47.1766 0.933228H59.7557C65.1464 0.933228 68.8161 3.91676 68.8161 8.27541C68.8161 10.6469 67.5535 12.6341 65.4895 13.8966C68.0887 15.0824 69.7328 17.3001 69.7328 19.9378C69.7328 24.6011 65.9863 27.6999 60.365 27.6999H47.1738V0.933228H47.1766ZM59.4126 11.8683C61.7841 11.8683 63.3129 10.6441 63.3129 8.69535C63.3129 6.74659 61.7841 5.52243 59.4126 5.52243H52.7209V11.8683H59.4126ZM59.9478 23.108C62.5087 23.108 64.1528 21.7329 64.1528 19.6661C64.1528 17.5993 62.5087 16.1857 59.9478 16.1857H52.7209V23.1052H59.9478V23.108Z" fill="black"/>
<path id="Vector_3" d="M81.5106 0.933228H87.8948L98.7914 27.6972H92.7887L90.0741 20.7008H79.0238L76.2708 27.6972H70.4987L81.5106 0.933228ZM88.3916 16.2269L84.5682 6.36232L80.7448 16.2269H88.3916Z" fill="black"/>
<path id="Vector_4" d="M99.3293 23.4538L102.502 19.4767C105.637 22.1912 108.351 23.3769 111.563 23.3769C114.774 23.3769 117.03 22.0759 117.03 20.0119C117.03 18.1757 115.806 17.2589 112.633 16.7237L107.319 15.807C102.73 15.0412 100.361 12.5572 100.361 8.65691C100.361 3.64776 104.377 0.551697 110.876 0.551697C114.777 0.551697 118.943 1.96524 121.927 4.29827L118.943 8.42635C116.075 6.24703 113.399 5.21501 110.492 5.21501C107.586 5.21501 105.598 6.40074 105.598 8.23422C105.598 9.87832 106.669 10.7182 109.422 11.1409L114.469 11.9808C119.822 12.8591 122.498 15.3843 122.498 19.5124C122.498 24.7493 118.062 28.0759 111.181 28.0759C106.861 28.0759 102.541 26.3934 99.3293 23.4511V23.4538Z" fill="black"/>
<path id="Vector_5" d="M125.747 0.933228H131.292V27.6972H125.747V0.933228Z" fill="black"/>
<path id="Vector_6" d="M136.147 0.933228H141.692V22.8033H156.335V27.6972H136.147V0.933228Z" fill="black"/>
<path id="Vector_7" d="M48.4886 33.5243H45.0082V32.2068H53.4565V33.5243H49.9762V42.1153H48.4913V33.5243H48.4886Z" fill="black"/>
<path id="Vector_8" d="M55.5919 32.2068L57.0082 31.8966V35.6459C57.5599 35.0668 58.3092 34.7676 59.1738 34.7676C60.8289 34.7676 61.9899 35.9149 61.9899 37.5837V42.1125H60.5736V37.8252C60.5736 36.7081 59.8792 36 58.7758 36C58.0128 36 57.4034 36.3403 57.0082 36.9332V42.1125H55.5919V32.2068Z" fill="black"/>
<path id="Vector_9" d="M64.3532 38.5059C64.3532 36.4254 65.9369 34.7841 67.9625 34.7841C69.9881 34.7841 71.4428 36.4391 71.4428 38.5773V38.9725H65.7667C65.9643 40.161 66.9414 41.0393 68.1875 41.0393C68.8957 41.0393 69.5599 40.8115 70.0128 40.4025L70.9186 41.2946C70.0704 41.9451 69.2058 42.2415 68.1299 42.2415C66.0082 42.2415 64.3504 40.6139 64.3504 38.5059H64.3532ZM70.043 37.9103C69.8454 36.8069 68.9808 35.9863 67.935 35.9863C66.8893 35.9863 65.9808 36.7658 65.7832 37.9103H70.043Z" fill="black"/>
<path id="Vector_10" d="M78.0385 32.2068H85.3696V33.5078H79.5261V36.5517H83.3742V37.8115H79.5261V42.1125H78.0412V32.2068H78.0385Z" fill="black"/>
<path id="Vector_11" d="M87.0384 39.4254V34.9103H88.4383V39.1839C88.4383 40.3147 89.1327 41.0229 90.2361 41.0229C90.9991 41.0229 91.6222 40.6825 92.0037 40.0759V34.9103H93.42V42.1125H92.0037V41.3769C91.452 41.9561 90.7164 42.2553 89.8518 42.2553C88.183 42.2553 87.0357 41.0942 87.0357 39.4254H87.0384Z" fill="black"/>
<path id="Vector_12" d="M95.4291 40.4712L96.3348 39.4227C97.4108 40.4712 98.5004 40.979 99.7466 40.979C101.177 40.979 102.154 40.301 102.154 39.3239C102.154 38.4318 101.588 38.0091 100.145 37.7676L98.4895 37.4986C96.6779 37.1885 95.7859 36.3513 95.7859 34.9241C95.7859 33.2113 97.2296 32.0805 99.4364 32.0805C100.853 32.0805 102.31 32.5608 103.427 33.4254L102.607 34.5563C101.531 33.7356 100.468 33.3403 99.365 33.3403C98.0777 33.3403 97.2132 33.936 97.2132 34.8115C97.2132 35.6185 97.7072 36 98.9808 36.1976L100.581 36.4666C102.675 36.8069 103.625 37.6688 103.625 39.2113C103.625 41.0229 102.041 42.2553 99.6752 42.2553C98.0915 42.2553 96.5627 41.6185 95.4291 40.4712Z" fill="black"/>
<path id="Vector_13" d="M105.73 40.0458C105.73 38.6871 106.833 37.8527 108.645 37.8527C109.339 37.8527 110.017 37.9955 110.613 38.2644V37.5014C110.613 36.4831 110.004 35.9589 108.859 35.9589C108.195 35.9589 107.514 36.1428 106.622 36.5682L106.098 35.506C107.188 34.9955 108.107 34.7704 109.057 34.7704C110.94 34.7704 111.999 35.6899 111.999 37.3312V42.1153H110.613V41.4923C109.976 42.0028 109.254 42.2416 108.376 42.2416C106.82 42.2416 105.73 41.3495 105.73 40.0485V40.0458ZM108.703 41.1766C109.466 41.1766 110.089 40.9653 110.613 40.4959V39.28C110.075 38.9698 109.482 38.8271 108.76 38.8271C107.728 38.8271 107.091 39.2937 107.091 40.0156C107.091 40.7374 107.742 41.1766 108.705 41.1766H108.703Z" fill="black"/>
<path id="Vector_14" d="M117.985 40.4712L118.891 39.4227C119.967 40.4712 121.057 40.979 122.303 40.979C123.733 40.979 124.71 40.301 124.71 39.3239C124.71 38.4318 124.145 38.0091 122.701 37.7676L121.046 37.4986C119.234 37.1885 118.342 36.3513 118.342 34.9241C118.342 33.2113 119.786 32.0805 121.993 32.0805C123.409 32.0805 124.866 32.5608 125.984 33.4254L125.163 34.5563C124.087 33.7356 123.025 33.3403 121.921 33.3403C120.634 33.3403 119.769 33.936 119.769 34.8115C119.769 35.6185 120.263 36 121.537 36.1976L123.137 36.4666C125.231 36.8069 126.181 37.6688 126.181 39.2113C126.181 41.0229 124.597 42.2553 122.231 42.2553C120.648 42.2553 119.119 41.6185 117.985 40.4712Z" fill="black"/>
<path id="Vector_15" d="M128.443 34.9103H129.843V35.6047C130.438 35.0805 131.201 34.7978 132.049 34.7978C134.102 34.7978 135.686 36.4254 135.686 38.5059C135.686 40.5864 134.086 42.2278 132.022 42.2278C131.229 42.2278 130.479 41.9588 129.856 41.4922V45.0027H128.44V34.9131L128.443 34.9103ZM134.303 38.5197C134.303 37.1034 133.241 36.0302 131.868 36.0302C131.048 36.0302 130.326 36.3403 129.859 36.8948V40.15C130.326 40.688 131.061 40.9982 131.868 40.9982C133.254 40.9982 134.303 39.9359 134.303 38.5224V38.5197Z" fill="black"/>
<path id="Vector_16" d="M137.94 32.871C137.94 32.3907 138.335 32.0064 138.804 32.0064C139.274 32.0064 139.683 32.3879 139.683 32.871C139.683 33.3541 139.287 33.7493 138.804 33.7493C138.321 33.7493 137.94 33.3541 137.94 32.871ZM138.096 34.9076H139.512V42.1098H138.096V34.9076Z" fill="black"/>
<path id="Vector_17" d="M141.917 38.506C141.917 36.4117 143.544 34.7704 145.625 34.7704C146.715 34.7704 147.777 35.2095 148.512 35.9589L147.634 36.936C147.082 36.3404 146.388 36.0302 145.652 36.0302C144.338 36.0302 143.317 37.1199 143.317 38.506C143.317 39.8921 144.349 40.9955 145.68 40.9955C146.402 40.9955 147.038 40.7127 147.618 40.1309L148.479 41.0366C147.716 41.7997 146.695 42.2388 145.619 42.2388C143.539 42.2388 141.911 40.6112 141.911 38.5032L141.917 38.506Z" fill="black"/>
<path id="Vector_18" d="M150.137 38.5059C150.137 36.4254 151.721 34.7841 153.747 34.7841C155.772 34.7841 157.227 36.4391 157.227 38.5773V38.9725H151.551C151.748 40.161 152.726 41.0393 153.972 41.0393C154.68 41.0393 155.344 40.8115 155.797 40.4025L156.703 41.2946C155.855 41.9451 154.99 42.2415 153.914 42.2415C151.792 42.2415 150.135 40.6139 150.135 38.5059H150.137ZM155.827 37.9103C155.629 36.8069 154.765 35.9863 153.719 35.9863C152.673 35.9863 151.765 36.7658 151.567 37.9103H155.827Z" fill="black"/>
</g>
</g>
<defs>
<clipPath id="clip0_69_688">
<rect width="157.227" height="45" fill="black"/>
</clipPath>
</defs>
</svg>
