<svg xmlns="http://www.w3.org/2000/svg" width="16" height="16" viewBox="0 0 16 16" fill="none">
<path d="M14.4627 0.56504C14.7295 0.554857 14.9979 0.544611 15.2685 0.532753C14.7593 1.54722 14.4326 2.60388 14.1645 3.65085C14.0408 4.13402 13.9316 4.6053 13.8238 5.07012C13.6488 5.82485 13.4778 6.56253 13.2553 7.30633L13.2553 7.30641C12.3448 10.3523 10.6283 12.8191 7.86896 14.4522L7.86891 14.4522C6.78028 15.0967 5.72953 15.404 4.72159 15.3647C3.71858 15.3257 2.71138 14.9418 1.70647 14.1231C1.63434 14.0641 1.5601 14.0286 1.52092 14.01L1.51837 14.0087C1.50649 14.0031 1.49487 13.9976 1.48297 13.992C1.44724 13.9752 1.40907 13.9572 1.35429 13.9293L1.17316 13.8373C1.14837 13.7053 1.12112 13.575 1.09239 13.4464C1.02821 13.159 0.954688 12.8721 0.883411 12.5939C0.867155 12.5305 0.851016 12.4675 0.835131 12.4051C0.748458 12.0644 0.667906 11.7349 0.606516 11.4057C0.189772 9.1701 1.03539 7.23621 2.49846 5.44015L2.49862 5.43995C4.75721 2.6644 7.78527 1.24478 11.3293 0.780924L11.3294 0.780917C12.3666 0.645043 13.4015 0.605543 14.4627 0.56504Z" stroke="#39B54A"/>
</svg>
