<svg xmlns="http://www.w3.org/2000/svg" width="16" height="16" viewBox="0 0 16 16" fill="none">
<path d="M16 0.230638C14.6952 2.47307 14.4571 5.03315 13.7343 7.44961C12.7936 10.5968 11.0073 13.1757 8.12363 14.8825C5.82517 16.2432 3.54257 16.2642 1.39014 14.5103C1.34676 14.4746 1.28856 14.4568 1.1277 14.375V15.9602C1.06527 15.9738 1.00178 15.9864 0.939341 16C0.881138 15.8878 0.760501 15.7683 0.773199 15.6645C0.942515 14.2115 0.37319 12.8822 0.114983 11.4973C-0.338995 9.06199 0.597534 6.98205 2.1108 5.12436C4.46535 2.2309 7.61992 0.762154 11.2644 0.285153C12.801 0.0838684 14.364 0.0880619 15.9153 0L16 0.230638Z" fill="#39B54A"/>
</svg>
