<svg xmlns="http://www.w3.org/2000/svg" width="17" height="16" viewBox="0 0 17 16" fill="none">
  <path d="M11.0747 7.3704C12.0772 7.3704 13.5809 7.3704 13.8158 7.3209C12.8727 10.4137 11.082 12.9481 8.19113 14.6253C5.88694 15.9626 3.59866 15.9832 1.44087 14.2596C1.39737 14.2245 1.33903 14.207 1.17778 14.1267V15.6844C1.11519 15.6978 1.05153 15.7102 0.988943 15.7235C0.930596 15.6133 0.809657 15.4959 0.822388 15.3939C0.992126 13.966 0.421382 12.6596 0.162531 11.2987C-0.292578 8.90541 0.321149 8.08455 1.04977 7.37041C2.05226 7.37041 2.05226 7.3704 4.05725 7.3704C5.56099 7.3704 6.06223 7.3704 7.56597 7.3704H11.0747Z" fill="#39B54A"/>
  <path d="M0.653831 11.2052C0.237519 9.01602 1.08142 7.12022 2.54797 5.35538L2.54814 5.35518C4.8115 2.62863 7.84772 1.23237 11.4035 0.77616L11.4036 0.776153C12.4439 0.642563 13.4822 0.603712 14.5463 0.563897C14.8119 0.553957 15.0792 0.543956 15.3485 0.532406C14.8422 1.52557 14.5164 2.55942 14.249 3.58329C14.1248 4.05893 14.0152 4.52238 13.9071 4.97926C13.7318 5.72048 13.5606 6.44438 13.3377 7.17498L13.3377 7.17506C12.4261 10.1644 10.7071 12.5876 7.94032 14.1928L7.94026 14.1929C6.84859 14.8264 5.79351 15.1293 4.78028 15.0906C3.77183 15.0521 2.76075 14.6737 1.75346 13.8693C1.68131 13.8114 1.60723 13.7768 1.56811 13.7585L1.5655 13.7572C1.55363 13.7517 1.542 13.7463 1.53009 13.7408C1.49425 13.7243 1.45589 13.7066 1.40089 13.6792L1.22086 13.5894C1.19623 13.4614 1.16923 13.3349 1.14079 13.2101C1.07638 12.9274 1.00259 12.6451 0.931136 12.3717C0.914847 12.3094 0.898679 12.2476 0.88277 12.1863C0.795892 11.8516 0.71526 11.5282 0.653831 11.2052ZM0.653831 11.2052L0.162716 11.2986L0.653831 11.2052Z" stroke="#39B54A"/>
</svg>
